<svg width="346" height="98" viewBox="0 0 346 98" fill="none" xmlns="http://www.w3.org/2000/svg">
<path d="M89.9355 83.6335C78.9253 74.7026 64.0941 68.0362 55.4331 65.6443C52.532 64.8517 49.8997 65.1772 47.2391 66.9323C46.4325 67.4843 45.6258 68.1353 44.7201 68.843C27.3274 82.3455 12.0717 87.8088 4.71266 89.7337C3.35408 90.0875 3.28332 90.4697 3.31162 90.8943C3.33993 91.2906 3.65127 91.5878 4.03337 91.6444C7.54304 92.2955 36.5969 93.2013 48.4138 93.1164C57.8531 93.0456 80.5669 92.5785 90.1053 90.781C90.2751 90.7527 91.195 90.5546 91.6761 90.2715C93.0489 89.4789 93.6999 87.922 92.4403 86.1528C91.6337 85.0064 90.3176 83.9449 89.9355 83.6335Z" fill="#00AEEF"/>
<path d="M54.4708 58.5105C55.3623 58.9351 56.3247 59.3173 57.386 59.7419C77.7648 68.05 90.1336 78.5378 95.483 83.9445C96.4736 84.9494 96.8274 84.8079 97.1812 84.5673C97.5067 84.355 97.6058 83.9304 97.4642 83.5765C96.2755 80.2221 82.5198 54.59 76.5336 44.3994C71.7644 36.2611 59.99 16.8283 53.6641 9.46841C53.5509 9.34103 52.914 8.6475 52.4329 8.36443C51.0601 7.57183 49.3902 7.79829 48.4845 9.75148C47.9043 11.0253 47.6354 12.6954 47.5646 13.1908C45.3286 27.1887 46.9702 43.3662 49.2487 52.0565C50.0129 54.9721 51.5979 57.0952 54.4566 58.5105" fill="#00AEEF"/>
<path d="M4.31638 86.0252C5.71742 85.8978 7.28828 85.2892 7.75529 85.1052C21.0015 80.0383 34.1911 70.5271 40.5736 64.2146C42.7247 62.0915 43.7578 59.6571 43.5596 56.4726C43.4747 55.496 43.3332 54.4769 43.1634 53.3305C40.1632 31.5198 43.0643 15.5687 45.0739 8.2372C45.4418 6.87845 45.1446 6.63784 44.7625 6.43969C44.4087 6.26985 43.9983 6.38308 43.7578 6.6803C41.451 9.39779 26.1245 34.1099 20.2939 44.3854C15.6379 52.5803 4.68433 72.4944 1.47185 81.6659C1.41524 81.8216 1.1322 82.7274 1.1322 83.2936C1.1322 84.8788 2.16529 86.2234 4.30223 86.0111" fill="#00AEEF"/>
<path d="M256.928 60.2802L256.956 47.3863C256.956 40.7908 253.545 37.1391 245.04 37.1108C241.247 37.1108 238.658 38.4837 236.945 40.0406C235.233 38.4837 232.643 37.125 228.85 37.1108C220.345 37.125 216.92 40.7908 216.934 47.3863L216.963 60.2802H224.647L224.619 47.7826C224.619 44.3716 226.091 42.6307 228.865 42.6732C231.865 42.7298 233.11 44.3575 233.11 47.7826L233.082 55.1708H240.837L240.809 47.7826C240.809 44.3716 242.054 42.7298 245.054 42.6732C247.814 42.6307 249.3 44.3575 249.3 47.7826L249.272 60.2802H256.956H256.928Z" fill="#00AEEF"/>
<path d="M207.297 41.7532C206.108 41.4419 202.613 40.2388 202.613 40.2388C202.004 40.0548 201.58 39.4745 201.58 38.8234V38.2148H193.938V38.597C193.938 41.1871 194.249 42.7723 196.669 44.5273C197.702 45.2775 199.698 46.0276 202.089 46.5938C205.627 47.4288 208.231 49.2546 207 52.6656C206.349 54.4773 204.24 55.0859 201.537 55.0859C197.914 55.0859 195.65 53.345 195.664 49.8208L195.693 48.2356H188.008L187.98 50.2312C187.98 57.0391 192.99 60.8181 201.495 60.8323C210.028 60.8464 215.038 57.0957 215.052 50.2878C215.137 46.3673 211.712 42.928 207.311 41.7674" fill="#00AEEF"/>
<path d="M295.52 47.7544C295.52 44.3434 297.77 42.6732 301.393 42.6732C305.016 42.6732 307.28 44.3575 307.266 47.7827V60.2803H314.951V47.3864C314.951 40.7908 309.941 37.1392 301.436 37.1109C292.902 37.0967 287.892 40.7342 287.878 47.3298V60.2803H295.534V47.7544H295.52Z" fill="#00AEEF"/>
<path d="M330.617 60.8178C339.15 60.832 344.16 57.1945 344.174 50.599V45.3055H336.518V50.1743C336.518 53.5854 334.268 55.2555 330.645 55.2555C327.022 55.2555 324.758 53.5712 324.772 50.146V37.6484H317.088V50.5423C317.088 57.1379 322.097 60.7895 330.603 60.8178" fill="#00AEEF"/>
<path d="M158.162 60.8181C166.908 60.8323 172.752 56.1191 172.766 48.9999V48.9716C172.766 48.646 172.766 46.3956 172.766 46.2116C172.823 43.2818 174.111 42.6732 175.413 42.6732C177.762 42.6732 178.371 44.2301 178.371 46.6362V60.2661H186.055V47.3722C186.055 40.7766 183.607 37.0967 175.102 37.0967C171.535 37.0967 169.356 38.1016 168.026 39.8142C165.535 38.0733 162.167 37.0967 158.19 37.0967C149.472 37.0826 143.628 41.7957 143.614 48.9149C143.614 56.0342 149.43 60.7756 158.148 60.8039M158.176 42.7157C162.195 42.7157 164.926 45.235 164.926 48.9716C164.926 52.6939 162.181 55.1991 158.162 55.185C154.143 55.185 151.44 52.6656 151.44 48.9433C151.44 45.2209 154.157 42.7157 158.176 42.7298" fill="#00AEEF"/>
<path d="M272.424 60.818C280.93 60.818 285.953 57.5768 285.939 51.6889C285.939 46.6078 282.217 43.5223 275.736 42.7439V38.427H268.801V36.8843H261.032C261.032 38.3421 261.626 39.6584 262.574 40.6208C263.523 41.5833 264.853 42.1636 266.311 42.1636H268.051V42.8712C262.207 43.8195 258.867 46.8767 258.853 51.6748C258.853 57.5626 263.876 60.818 272.41 60.8038M272.382 47.7542C276.005 47.7542 278.269 48.8016 278.255 51.6889C278.255 54.5762 276.005 55.6095 272.382 55.6236C268.759 55.6236 266.523 54.5762 266.509 51.6889C266.509 48.8016 268.759 47.7542 272.382 47.7542Z" fill="#00AEEF"/>
<path d="M228.921 17.3665C229.006 13.4459 225.581 10.0066 221.18 8.84601C219.991 8.53463 216.496 7.33158 216.496 7.33158C215.887 7.14758 215.463 6.56728 215.463 5.91622V5.30762H207.821V5.68976C207.821 8.27987 208.132 9.86507 210.552 11.6201C211.585 12.3702 213.581 13.1204 215.972 13.6865C219.51 14.5216 222.114 16.3474 220.883 19.7584C220.232 21.5701 218.123 22.1787 215.42 22.1787C211.797 22.1787 209.533 20.4378 209.547 16.9135L209.576 15.6963H201.891L201.863 17.324C201.863 24.1319 206.873 27.9109 215.378 27.925C223.911 27.9392 228.921 24.1885 228.935 17.3806" fill="#00AEEF"/>
<path d="M157.143 27.9249C165.676 27.939 170.686 24.3016 170.7 17.706C170.785 13.9128 167.36 10.5867 162.959 9.45446C161.77 9.15724 158.275 7.98249 158.275 7.98249C157.666 7.81265 157.242 7.2465 157.242 6.60959V6.0293H149.6V6.39729C149.6 8.90247 149.911 10.4452 152.331 12.1436C153.364 12.8796 155.36 13.6015 157.751 14.1393C161.289 14.946 163.893 16.7152 162.662 20.013C162.011 21.7681 159.902 22.3625 157.199 22.3484C153.576 22.3484 151.312 20.6641 151.326 17.2389L151.355 15.6679H143.67L143.642 17.6352C143.642 24.2308 148.652 27.8824 157.157 27.9107" fill="#00AEEF"/>
<path d="M267.358 14.8613C267.358 11.4503 269.608 9.78017 273.231 9.78017C276.854 9.78017 279.118 11.4644 279.104 14.8896V27.3872H286.788V14.4933C286.788 7.89774 281.779 4.24612 273.273 4.21781C264.74 4.20366 259.73 7.84113 259.716 14.4367V27.3872H267.372V14.8613H267.358Z" fill="#00AEEF"/>
<path d="M186.381 27.9249C194.886 27.9107 199.91 24.5563 199.896 18.4278C199.896 12.2993 195.551 8.94494 187.032 8.93079C184.399 8.93079 181.866 9.58185 180.493 10.6151V6.04346H172.809V18.4278C172.809 24.5563 177.833 27.939 186.366 27.9249M186.338 14.7479C189.961 14.7479 192.225 15.7245 192.211 18.4278C192.211 21.1312 189.961 22.1078 186.338 22.1219C182.715 22.1219 180.479 21.1453 180.465 18.4278C180.465 15.7245 182.715 14.7338 186.338 14.7479Z" fill="#00AEEF"/>
<path d="M234.228 22.3202H231.355V27.3872H254.168V21.8249H246.257C241.799 21.8249 238.276 19.1781 238.262 15.7671V14.8613C238.262 11.4503 240.512 9.78017 244.135 9.78017C247.757 9.78017 250.022 11.4644 250.008 14.8896V17.7345H257.692V14.4933C257.692 7.89774 252.682 4.24612 244.177 4.21781C235.643 4.20366 230.634 7.84113 230.62 14.4367V15.3142C230.69 17.8902 232.077 20.367 234.242 22.3061" fill="#00AEEF"/>
<path d="M282.571 81.1851V81.1285C284.906 80.2227 286.251 78.3827 286.251 76.3587C286.251 71.6031 280.604 69.7632 273.754 69.749C266.707 69.749 261.018 71.1078 261.018 78.0572H268.334C268.334 75.0142 271.674 74.8443 274.405 74.8443C276.698 74.8443 278.594 75.4246 278.594 77.0947C278.594 78.4818 277.575 79.0621 275.255 79.1187H271.646V83.5346H275.467C277.66 83.5771 279.175 83.5912 279.316 85.2189C279.486 87.2853 277.505 87.7807 274.844 87.7807C271.66 87.7807 268.094 87.5118 268.263 83.8743H260.607C260.607 91.3615 266.579 93.4704 274.504 93.4846C281.878 93.4846 287.397 91.4748 287.397 86.4502C287.397 84.1149 285.67 82.1192 282.585 81.1851" fill="#00AEEF"/>
<path d="M302.44 69.8335C293.907 69.8194 288.897 73.4569 288.883 80.0524V93.0029H296.539V80.477C296.539 77.066 298.789 75.3959 302.412 75.3959C306.035 75.3959 308.299 77.0802 308.285 80.5053V93.0029H315.97V80.109C315.97 73.5135 310.96 69.8618 302.454 69.8335" fill="#00AEEF"/>
<path d="M337.212 78.0287V82.8975C337.212 86.3085 334.961 87.9786 331.339 87.9786C327.716 87.9786 325.451 86.2943 325.465 82.8692V70.3716H317.781V83.2655C317.781 89.861 322.791 93.5127 331.296 93.541C339.83 93.5551 344.839 89.9177 344.854 83.3221V78.0287H337.197H337.212Z" fill="#00AEEF"/>
<path d="M248.125 69.834C244.559 69.834 242.38 70.8389 241.049 72.5515C238.559 70.8106 235.19 69.834 231.214 69.834C222.496 69.8198 216.651 74.533 216.637 81.6522C216.637 88.7715 222.454 93.5129 231.171 93.5412C239.917 93.5554 245.762 88.8422 245.776 81.723V81.6947C245.776 81.3691 245.776 79.1329 245.776 78.9347C245.833 76.0049 247.121 75.3963 248.423 75.3963C250.772 75.3963 251.38 76.9532 251.38 79.3593V92.9892H259.065V80.0953C259.065 73.4998 256.616 69.8198 248.111 69.8198M231.171 87.9081C227.152 87.9081 224.449 85.3887 224.449 81.6522C224.449 77.9298 227.166 75.4246 231.185 75.4388C235.205 75.4388 237.936 77.9581 237.936 81.6947C237.936 85.4171 235.19 87.9222 231.171 87.9081Z" fill="#00AEEF"/>
<path d="M209.816 84.1007V79.1753H145.807V84.1007" fill="#00AEEF"/>
</svg>
